<svg id="Layer_5" enable-background="new 0 0 64 64" height="512" viewBox="0 0 64 64" width="512" xmlns="http://www.w3.org/2000/svg"><g><path d="m16.923 34.221c-.371-1.867-2.018-3.221-3.915-3.221-.267 0-.543.028-.793.08-2.162.433-3.569 2.545-3.126 4.753l1.128 4.511-9.217 17.41v2.248c0 1.654 1.346 3 3 3h15v-2c0-2.206-1.794-4-4-4h-6.325l3.897-7.237.505 2.02c.372 1.863 2.021 3.217 3.922 3.217.271 0 .537-.026.786-.078 2.162-.434 3.569-2.545 3.126-4.753zm-1.923 24.781c1.103 0 2 .897 2 2h-13c-.552 0-1-.448-1-1v-1zm-8.598-2h-2.741l7.281-13.754.909 3.635zm10.985-4.038c-.12.025-.254.038-.388.038-.95 0-1.774-.677-1.972-1.655l-3.988-15.952c-.216-1.081.487-2.137 1.575-2.354.125-.026.262-.04.394-.04.946 0 1.769.678 1.965 1.658l3.988 15.951c.216 1.08-.487 2.136-1.574 2.354z"/><path d="m41 36c0 2.757 2.243 5 5 5s5-2.243 5-5v-1h-10zm7.829 1c-.413 1.164-1.525 2-2.829 2s-2.416-.836-2.829-2z"/><path d="m44 29c0-1.654-1.346-3-3-3s-3 1.346-3 3 1.346 3 3 3 3-1.346 3-3zm-4 0c0-.551.448-1 1-1s1 .449 1 1-.448 1-1 1-1-.449-1-1z"/><path d="m51 26c-1.654 0-3 1.346-3 3s1.346 3 3 3 3-1.346 3-3-1.346-3-3-3zm0 4c-.552 0-1-.449-1-1s.448-1 1-1 1 .449 1 1-.448 1-1 1z"/><path d="m63 24.18c0-6.164-5.016-11.18-11.181-11.18h-2.575l-.417-1.149c-1.982-4.162-6.232-6.851-10.827-6.851-1.779 0-3.544.402-5.152 1.169-2.651-3.252-6.644-5.169-10.848-5.169-6.296 0-11.727 4.127-13.443 10.123-4.291.697-7.557 4.465-7.557 8.877 0 4.962 4.037 9 9 9h19.556c-.344.591-.556 1.268-.556 2 0 2.206 1.794 4 4 4h.051c.41 4.526 3.571 8.266 7.795 9.534-2.657 1.204-4.479 3.742-4.781 6.63-.878.29-1.571.967-1.881 1.836h-3.184c-1.654 0-3 1.346-3 3v1h-3c-2.206 0-4 1.794-4 4v2h14v-2.78c.532.48 1.229.78 2 .78l8-.001c3.859 0 7-3.141 7-7v-6.001c0-1.253-.473-2.424-1.308-3.345 4.453-1.126 7.833-4.964 8.258-9.653h.05c2.206 0 4-1.794 4-4 0-.945-.343-1.803-.894-2.489.576-1.368.894-2.847.894-4.331zm-30 36.82h-10c0-1.103.897-2 2-2h3 5zm1-4h-4v-1c0-.552.448-1 1-1h3zm-24-30c-3.859 0-7-3.14-7-7 0-3.619 2.826-6.681 6.434-6.971l.728-.058.166-.711c1.274-5.452 6.074-9.26 11.672-9.26 3.852 0 7.497 1.879 9.752 5.027l.524.732.783-.446c1.507-.859 3.216-1.313 4.941-1.313 3.828 0 7.369 2.242 8.983 5.62l.137.38h-6.94c-2.673 0-5.128.945-7.054 2.516-.741-.936-1.873-1.516-3.126-1.516-.656 0-1.267.174-1.814.455l-2.867-3.226c.43-.637.681-1.404.681-2.229 0-2.206-1.794-4-4-4s-4 1.794-4 4c0 .802.243 1.547.651 2.174l-5.784 6.31c-.56-.299-1.189-.484-1.867-.484-2.206 0-4 1.794-4 4s1.794 4 4 4 4-1.794 4-4c0-.802-.242-1.547-.651-2.174l5.784-6.31c.561.299 1.189.484 1.867.484.656 0 1.267-.174 1.813-.455l2.867 3.226c-.429.637-.68 1.404-.68 2.229 0 1.942 1.392 3.562 3.23 3.922-.15.73-.23 1.485-.23 2.258 0 .95.136 1.899.376 2.82zm14-18c0 1.103-.897 2-2 2s-2-.897-2-2 .897-2 2-2 2 .897 2 2zm-11 12c0 1.103-.897 2-2 2s-2-.897-2-2 .897-2 2-2 2 .897 2 2zm16.825-1.018c-1.02-.09-1.825-.939-1.825-1.982 0-1.103.897-2 2-2 .702 0 1.319.368 1.678.939-.77.903-1.399 1.927-1.853 3.043zm3.175 13.018c-1.103 0-2-.897-2-2s.897-2 2-2zm9.032 13.181.368-.138c-.257.601-.4 1.262-.4 1.956l.001 3.001h-3.915c.358-2.165 1.852-4.033 3.946-4.819zm7.968 7.818c0 2.757-2.243 5-5 5l-8 .001c-.552 0-1-.448-1-1v-4c0-.552.448-1 1-1h5.466l1.702 2.555 1.664-1.109-1.831-2.748-.001-3.699c0-1.651 1.341-2.994 2.99-2.999h.01.012c.797.003 1.545.313 2.109.877.567.566.879 1.319.879 2.121zm7-19.999c0 4.963-4.037 9-9 9h-.988c-.003 0-.007-.001-.01-.001 0 0-.001 0-.002 0-.003 0-.006.001-.01.001h-2.172-.818c-4.963 0-9-4.037-9-9v-7c0-2.161 1.723-3.928 3.867-3.998l.883.252c4.055 1.159 8.248 1.746 12.465 1.746h1.785c1.654 0 3 1.346 3 3zm2-1v-4c1.103 0 2 .897 2 2s-.897 2-2 2zm1.458-5.715c-.453-.178-.942-.285-1.458-.285h-.101c-.465-2.279-2.484-4-4.899-4h-1.785c-4.03 0-8.039-.562-11.916-1.669l-1.024-.292-.275-.039c-3.309 0-6 2.691-6 6-.515 0-1.005.106-1.458.284-.356-.993-.542-2.049-.542-3.104 0-5.062 4.118-9.18 9.181-9.18h11.639c5.062 0 9.18 4.118 9.18 9.18 0 1.056-.186 2.111-.542 3.105z"/></g></svg>