<svg height="512" viewBox="0 0 74 74" width="512" xmlns="http://www.w3.org/2000/svg"><g id="Numbers"><text fill="rgb(0,0,0)" font-family="ArialMT, Arial" font-size="18" transform="translate(31.995 -18.544)">3<tspan x="-5.005" y="124">13</tspan><tspan x="-5.005" y="248">23</tspan><tspan x="-5.005" y="372">33</tspan><tspan x="-5.005" y="496">43</tspan><tspan x="-5.005" y="620">53</tspan><tspan x="-5.005" y="744">63</tspan><tspan x="-5.005" y="868">73</tspan><tspan x="-5.005" y="992">83</tspan><tspan x="-5.005" y="1116">93</tspan><tspan x="-10.011" y="1240">103</tspan><tspan letter-spacing="-.074em" x="-9.343" y="1364">1</tspan><tspan x="-.668" y="1364">13</tspan><tspan x="-10.011" y="1488">123</tspan><tspan x="-10.011" y="1612">133</tspan><tspan x="-10.011" y="1736">143</tspan><tspan x="-10.011" y="1860">153</tspan><tspan x="-10.011" y="1984">163</tspan><tspan x="-10.011" y="2108">173</tspan><tspan x="-10.011" y="2232">183</tspan><tspan x="-10.011" y="2356">193</tspan><tspan x="-10.011" y="2480">203</tspan><tspan x="-10.011" y="2604">213</tspan><tspan x="-10.011" y="2728">223</tspan><tspan x="-10.011" y="2852">233</tspan><tspan x="-10.011" y="2976">243</tspan><tspan x="-10.011" y="3100">253</tspan><tspan x="-10.011" y="3224">263</tspan><tspan x="-10.011" y="3348">273</tspan><tspan x="-10.011" y="3472">283</tspan><tspan x="-10.011" y="3596">293</tspan></text></g><g id="Icons"><path d="m56.22 19.1a1 1 0 0 1 -.7-.288 16.236 16.236 0 0 0 -2.242-1.846 1 1 0 0 1 1.122-1.652 18.187 18.187 0 0 1 2.519 2.074 1 1 0 0 1 -.7 1.712z"/><path d="m25.02 51.88h-12.42a10.59 10.59 0 0 1 -.626-21.162 14.891 14.891 0 0 1 14.566-11.648 14.451 14.451 0 0 1 2.81.275 18.581 18.581 0 0 1 5.958-5.076 1 1 0 0 1 .944 1.762 16.609 16.609 0 0 0 -5.666 5.008.993.993 0 0 1 -1.05.393 12.657 12.657 0 0 0 -3-.362 12.9 12.9 0 0 0 -12.754 10.8 1 1 0 0 1 -.986.834h-.2a8.59 8.59 0 0 0 0 17.18h12.424a1 1 0 1 1 0 2z"/><path d="m47.391 14.42a1.037 1.037 0 0 1 -.191-.02 15.8 15.8 0 0 0 -2.859-.3 1 1 0 0 1 .009-2h.009a17.991 17.991 0 0 1 3.222.338 1 1 0 0 1 -.19 1.982z"/><path d="m61.42 51.88h-12.42a1 1 0 0 1 0-2h12.42a8.59 8.59 0 1 0 0-17.18 1.056 1.056 0 0 1 -.758-.32 1.019 1.019 0 0 1 -.289-.756c.03-.394.057-.735.057-1.094a16.413 16.413 0 0 0 -.735-4.883 1 1 0 1 1 1.91-.594 18.435 18.435 0 0 1 .825 5.477q0 .111 0 .222a10.588 10.588 0 0 1 -1.01 21.128z"/><path d="m48.065 61.924h-22.109a1.933 1.933 0 0 1 -1.931-1.93v-12.7a1.933 1.933 0 0 1 1.931-1.93h22.109a1.933 1.933 0 0 1 1.935 1.93v12.7a1.933 1.933 0 0 1 -1.935 1.93zm-22.04-14.56v12.63l22.04-.07-.065-12.63z"/><path d="m45.153 47.364h-16.284a1 1 0 0 1 -1-1v-5.555a9.142 9.142 0 0 1 18.284 0v5.555a1 1 0 0 1 -1 1zm-15.284-2h14.284v-4.555a7.142 7.142 0 0 0 -14.284 0z"/><path d="m37 55.644a1 1 0 0 1 -1-1v-2a1 1 0 0 1 2 0v2a1 1 0 0 1 -1 1z"/></g></svg>