<?xml version="1.0" encoding="utf-8"?>
<!-- Generator: Adobe Illustrator 24.3.0, SVG Export Plug-In . SVG Version: 6.00 Build 0)  -->
<svg version="1.1" id="Layer_1" xmlns="http://www.w3.org/2000/svg" xmlns:xlink="http://www.w3.org/1999/xlink" x="0px" y="0px"
	 width="658.2px" height="658.2px" viewBox="0 0 658.2 658.2" style="enable-background:new 0 0 658.2 658.2;" xml:space="preserve">
<style type="text/css">
	.st0{fill:#AC884C;}
	.st1{fill:#344D3E;}
	.st2{fill:#629077;}
	.st3{fill:#231F20;}
	.st4{fill:#FFFFFF;}
</style>
<g>
	<g>
		<g>
			<path class="st0" d="M40.3,231.8c0,21.4,17.3,38.6,38.7,38.7l0,0c21.4-0.1,38.6-17.3,38.7-38.7l0,0
				c-0.1-21.4-17.3-38.7-38.7-38.7l0,0C57.7,193.1,40.4,210.4,40.3,231.8L40.3,231.8L40.3,231.8z"/>
		</g>
		<g>
			<path class="st0" d="M160,231.8c0,21.3,17.4,38.6,38.7,38.7l0,0c21.4-0.1,38.7-17.3,38.7-38.7l0,0c0-21.4-17.3-38.7-38.7-38.7
				l0,0C177.3,193.1,160,210.4,160,231.8L160,231.8L160,231.8z"/>
		</g>
		<g>
			<g>
				<g>
					<path class="st1" d="M279.7,231.8c0,21.4,17.3,38.7,38.7,38.7l0,0c21.4,0,38.7-17.3,38.7-38.7l0,0c0-21.4-17.4-38.7-38.7-38.7
						l0,0C297,193.1,279.7,210.4,279.7,231.8L279.7,231.8L279.7,231.8z"/>
				</g>
			</g>
		</g>
		<g>
			<g>
				<g>
					<path class="st1" d="M100.2,337.1c0.1,21.4,17.3,38.7,38.7,38.7l0,0c21.4,0,38.7-17.4,38.7-38.7l0,0
						c0-21.4-17.3-38.7-38.7-38.7l0,0C117.5,298.4,100.2,315.7,100.2,337.1L100.2,337.1L100.2,337.1z"/>
				</g>
			</g>
		</g>
		<g>
			<g>
				<path class="st0" d="M219.8,337.1c0.1,21.4,17.4,38.7,38.7,38.7l0,0c21.4,0,38.7-17.4,38.7-38.7l0,0c0-21.4-17.3-38.7-38.7-38.7
					l0,0C237.2,298.4,219.9,315.7,219.8,337.1L219.8,337.1L219.8,337.1z"/>
			</g>
		</g>
		<g>
			<path class="st0" d="M160,442.5c0,21.4,17.3,38.7,38.7,38.7l0,0c21.4,0,38.7-17.3,38.7-38.7l0,0c0-21.4-17.3-38.7-38.7-38.7l0,0
				C177.3,403.8,160,421.1,160,442.5L160,442.5L160,442.5z"/>
		</g>
		<g>
			<g>
				<path class="st2" d="M106,93.1c3.6,14,10.7,31.1,23.6,44l0,0c12.9,12.9,30,20,44,23.6l0,0c6.7,1.7,12.5,2.7,16.8,3.3l0,0
					c-0.6-4.3-1.5-10.2-3.2-16.8l0,0c-3.6-14-10.7-31.1-23.6-44l0,0c-12.9-12.9-30-19.9-44-23.6l0,0c-6.7-1.7-12.5-2.7-16.8-3.3l0,0
					C103.3,80.6,104.3,86.5,106,93.1L106,93.1z"/>
			</g>
			<g>
				<path class="st2" d="M281.3,79.6c-14,3.6-31.1,10.7-44,23.6l0,0c-12.9,12.9-19.9,30-23.6,44l0,0c-1.7,6.7-2.7,12.5-3.3,16.8l0,0
					c4.3-0.5,10.2-1.5,16.8-3.2l0,0c14-3.7,31.1-10.7,44-23.6l0,0c12.9-12.9,19.9-30,23.6-44l0,0c1.8-6.7,2.7-12.5,3.3-16.8l0,0
					C293.8,76.9,287.9,77.8,281.3,79.6L281.3,79.6z"/>
			</g>
		</g>
	</g>
</g>
</svg>
