<?xml version="1.0" encoding="utf-8"?>
<!-- Generator: Adobe Illustrator 24.3.0, SVG Export Plug-In . SVG Version: 6.00 Build 0)  -->
<svg version="1.1" id="Layer_1" xmlns="http://www.w3.org/2000/svg" xmlns:xlink="http://www.w3.org/1999/xlink" x="0px" y="0px"
	 width="500px" height="500px" viewBox="0 0 500 500" style="enable-background:new 0 0 500 500;" xml:space="preserve">
<style type="text/css">
	.st0{fill:#AC884C;}
	.st1{fill:#344D3E;}
	.st2{fill:#629077;}
	.st3{fill:#231F20;}
	.st4{fill:#FFFFFF;}
  .center{display:flex;justify-content:center;align-items:center;}
</style>
<rect class="st2" width="500" height="500"/>
<g class="center" transform="translate(46 -50)">
	<g>
		<g>
			<path class="st4" d="M38.3,231.8c0,21.4,17.3,38.6,38.7,38.7l0,0c21.4-0.1,38.6-17.3,38.7-38.7l0,0
				c-0.1-21.4-17.3-38.7-38.7-38.7l0,0C55.6,193.1,38.3,210.4,38.3,231.8L38.3,231.8L38.3,231.8z"/>
		</g>
		<g>
			<path class="st4" d="M157.9,231.8c0,21.3,17.4,38.6,38.7,38.7l0,0c21.4-0.1,38.7-17.3,38.7-38.7l0,0c0-21.4-17.3-38.7-38.7-38.7
				l0,0C175.3,193.1,157.9,210.4,157.9,231.8L157.9,231.8L157.9,231.8z"/>
		</g>
		<g>
			<g>
				<g>
					<path class="st4" d="M277.6,231.8c0,21.4,17.3,38.7,38.7,38.7l0,0c21.4,0,38.7-17.3,38.7-38.7l0,0c0-21.4-17.4-38.7-38.7-38.7
						l0,0C294.9,193.1,277.6,210.4,277.6,231.8L277.6,231.8L277.6,231.8z"/>
				</g>
			</g>
		</g>
		<g>
			<g>
				<g>
					<path class="st4" d="M98.1,337.1c0.1,21.4,17.3,38.7,38.7,38.7l0,0c21.4,0,38.7-17.4,38.7-38.7l0,0c0-21.4-17.3-38.7-38.7-38.7
						l0,0C115.4,298.4,98.2,315.7,98.1,337.1L98.1,337.1L98.1,337.1z"/>
				</g>
			</g>
		</g>
		<g>
			<g>
				<path class="st4" d="M217.8,337.1c0.1,21.4,17.4,38.7,38.7,38.7l0,0c21.4,0,38.7-17.4,38.7-38.7l0,0c0-21.4-17.3-38.7-38.7-38.7
					l0,0C235.1,298.4,217.8,315.7,217.8,337.1L217.8,337.1L217.8,337.1z"/>
			</g>
		</g>
		<g>
			<path class="st4" d="M157.9,442.5c0,21.4,17.3,38.7,38.7,38.7l0,0c21.4,0,38.7-17.3,38.7-38.7l0,0c0-21.4-17.3-38.7-38.7-38.7
				l0,0C175.3,403.8,158,421.1,157.9,442.5L157.9,442.5L157.9,442.5z"/>
		</g>
		<g>
			<g>
				<path class="st4" d="M104,93.1c3.6,14,10.7,31.1,23.6,44l0,0c12.9,12.9,30,20,44,23.6l0,0c6.7,1.7,12.5,2.7,16.8,3.3l0,0
					c-0.6-4.3-1.5-10.2-3.2-16.8l0,0c-3.6-14-10.7-31.1-23.6-44l0,0c-12.9-12.9-30-19.9-44-23.6l0,0c-6.7-1.7-12.5-2.7-16.8-3.3l0,0
					C101.3,80.6,102.2,86.5,104,93.1L104,93.1z"/>
			</g>
			<g>
				<path class="st4" d="M279.3,79.6c-14,3.6-31.1,10.7-44,23.6l0,0c-12.9,12.9-19.9,30-23.6,44l0,0c-1.7,6.7-2.7,12.5-3.3,16.8l0,0
					c4.3-0.5,10.2-1.5,16.8-3.2l0,0c14-3.7,31.1-10.7,44-23.6l0,0c12.9-12.9,19.9-30,23.6-44l0,0c1.8-6.7,2.7-12.5,3.3-16.8l0,0
					C291.7,76.9,285.9,77.8,279.3,79.6L279.3,79.6z"/>
			</g>
		</g>
	</g>
</g>
</svg>
