<?xml version="1.0" encoding="utf-8"?>
<!-- Generator: Adobe Illustrator 24.3.0, SVG Export Plug-In . SVG Version: 6.00 Build 0)  -->
<svg version="1.1" id="Layer_1" xmlns="http://www.w3.org/2000/svg" xmlns:xlink="http://www.w3.org/1999/xlink" x="0px" y="0px"
	 width="2000px" height="658.2px" viewBox="0 0 2000 658.2" style="enable-background:new 0 0 2000 658.2;" xml:space="preserve">
<style type="text/css">
	.st0{fill:#AC884C;}
	.st1{fill:#344D3E;}
	.st2{fill:#629077;}
	.st3{fill:#231F20;}
	.st4{fill:#FFFFFF;}
</style>
<g>
	<g>
		<g>
			<path class="st4" d="M45.8,231.8c0,21.4,17.3,38.6,38.7,38.7l0,0c21.4-0.1,38.6-17.3,38.7-38.7l0,0
				c-0.1-21.4-17.3-38.7-38.7-38.7l0,0C63.1,193.1,45.9,210.4,45.8,231.8L45.8,231.8L45.8,231.8z"/>
		</g>
		<g>
			<path class="st4" d="M165.5,231.8c0,21.3,17.4,38.6,38.7,38.7l0,0c21.4-0.1,38.7-17.3,38.7-38.7l0,0c0-21.4-17.3-38.7-38.7-38.7
				l0,0C182.8,193.1,165.5,210.4,165.5,231.8L165.5,231.8L165.5,231.8z"/>
		</g>
		<g>
			<g>
				<g>
					<path class="st4" d="M285.1,231.8c0,21.4,17.3,38.7,38.7,38.7l0,0c21.4,0,38.7-17.3,38.7-38.7l0,0c0-21.4-17.4-38.7-38.7-38.7
						l0,0C302.5,193.1,285.2,210.4,285.1,231.8L285.1,231.8L285.1,231.8z"/>
				</g>
			</g>
		</g>
		<g>
			<g>
				<g>
					<path class="st4" d="M105.7,337.1c0.1,21.4,17.3,38.7,38.7,38.7l0,0c21.4,0,38.7-17.4,38.7-38.7l0,0
						c0-21.4-17.3-38.7-38.7-38.7l0,0C123,298.4,105.7,315.7,105.7,337.1L105.7,337.1L105.7,337.1z"/>
				</g>
			</g>
		</g>
		<g>
			<g>
				<path class="st4" d="M225.3,337.1c0.1,21.4,17.4,38.7,38.7,38.7l0,0c21.4,0,38.7-17.4,38.7-38.7l0,0c0-21.4-17.3-38.7-38.7-38.7
					l0,0C242.7,298.4,225.4,315.7,225.3,337.1L225.3,337.1L225.3,337.1z"/>
			</g>
		</g>
		<g>
			<path class="st4" d="M165.5,442.5c0,21.4,17.3,38.7,38.7,38.7l0,0c21.4,0,38.7-17.3,38.7-38.7l0,0c0-21.4-17.3-38.7-38.7-38.7
				l0,0C182.8,403.8,165.5,421.1,165.5,442.5L165.5,442.5L165.5,442.5z"/>
		</g>
		<g>
			<g>
				<path class="st4" d="M111.5,93.1c3.6,14,10.7,31.1,23.6,44l0,0c12.9,12.9,30,20,44,23.6l0,0c6.7,1.7,12.5,2.7,16.8,3.3l0,0
					c-0.6-4.3-1.5-10.2-3.2-16.8l0,0c-3.6-14-10.7-31.1-23.6-44l0,0c-12.9-12.9-30-19.9-44-23.6l0,0c-6.7-1.7-12.5-2.7-16.8-3.3l0,0
					C108.8,80.6,109.8,86.5,111.5,93.1L111.5,93.1z"/>
			</g>
			<g>
				<path class="st4" d="M286.8,79.6c-14,3.6-31.1,10.7-44,23.6l0,0c-12.9,12.9-19.9,30-23.6,44l0,0c-1.7,6.7-2.7,12.5-3.3,16.8l0,0
					c4.3-0.5,10.2-1.5,16.8-3.2l0,0c14-3.7,31.1-10.7,44-23.6l0,0c12.9-12.9,19.9-30,23.6-44l0,0c1.8-6.7,2.7-12.5,3.3-16.8l0,0
					C299.3,76.9,293.4,77.8,286.8,79.6L286.8,79.6z"/>
			</g>
		</g>
	</g>
	<g>
		<path class="st4" d="M617,354.4c0,33.4-25.5,64-95.4,64c-61.9,0-89.5-21.7-89.5-57.2c0-11.4,0.9-18.5,1.8-24.4l66.9,2.3
			c-1.2,4.4-1.8,10-1.8,15c0,10,6.5,15,18.2,15c11.7,0,17.3-3.8,17.3-12.3V355c0-7.6-6.2-13.8-49.6-37
			c-36.7-19.7-51.3-35.2-51.3-65.7v-4.1c0-29.9,28.5-60.1,92.4-60.1c64.6,0,86.3,25.8,86.3,57.2c0,9.7-0.3,15.6-1.5,22.6l-64-2.6
			c0.9-4.1,1.5-7,1.5-12.3c0-11.7-3.8-15.6-16.4-15.6c-11.1,0-15.6,5-15.6,11.1v1.5c0,9.7,7.6,13.8,36.4,27.6
			c45.5,21.7,64.3,34.9,64.3,72.5V354.4z"/>
		<path class="st4" d="M841.2,340.6c0,37-12.6,77.8-93,77.8c-82.2,0-98.3-41.7-98.3-78.6V191.9h82.7v158.4c0,10,6.5,17.3,19.1,17.3
			c10.9,0,17.3-7.9,17.3-17.6V191.9h72.2V340.6z"/>
		<path class="st4" d="M1041.6,414.9H881.4v-223h82.4v167.5h77.8V414.9z"/>
		<path class="st4" d="M1243.2,247.3h-57.5v167.5h-83V247.3h-57.5v-55.5h198.1V247.3z"/>
		<path class="st4" d="M1458.3,414.9h-83l-4.7-23.5h-45.2l-4.1,23.5h-70.7l58.1-223h91L1458.3,414.9z M1361.1,342.4l-13.5-76.9h-1.5
			l-12.6,76.9H1361.1z"/>
		<path class="st4" d="M1689.2,414.9h-76.9l-49.3-110h-1.8v110h-72.2v-223h81.9l44.3,93.9h1.8v-93.9h72.2V414.9z"/>
		<path class="st4" d="M1927.7,414.9h-83l-4.7-23.5h-45.2l-4.1,23.5H1720l58.1-223h91L1927.7,414.9z M1830.6,342.4l-13.5-76.9h-1.5
			l-12.6,76.9H1830.6z"/>
	</g>
	<g>
		<g>
			<path class="st4" d="M1349.6,528.6c0,33.9-24.4,55.9-62.1,55.9H1239V472.9h49.8C1325.7,472.9,1349.6,494.7,1349.6,528.6z
				 M1311.8,528.9c0-16.6-9.4-27.4-23.7-27.4H1276v54.3h13.9C1303.2,555.9,1311.8,545.3,1311.8,528.9z"/>
			<path class="st4" d="M1404.8,472.9v111.6h-36.9V472.9H1404.8z"/>
			<path class="st4" d="M1500.9,525.8h31.7v46c-12.4,8.3-33,14.3-48.9,14.3c-35,0-60.5-24.2-60.5-57.3c0-33,26.4-57,62.9-57
				c17.4,0,36.3,6.7,48.3,17.2l-20.9,25.3c-7.5-7.2-18.3-11.8-27.6-11.8c-14.3,0-24.8,11.1-24.8,26.3c0,15.4,10.7,26.6,25.2,26.6
				c3.8,0,9.2-1.4,14.7-3.7V525.8z"/>
			<path class="st4" d="M1591.2,472.9v111.6h-36.9V472.9H1591.2z"/>
			<path class="st4" d="M1708.4,472.9V502h-31.9v82.5h-36.9V502h-31.7v-29.1H1708.4z"/>
			<path class="st4" d="M1788.3,568.8h-41.9l-5.7,15.8h-37.9l47.1-111.6h37.9l45.4,111.6h-39.3L1788.3,568.8z M1779.3,542.3
				l-11.5-32.6l-11.8,32.6H1779.3z"/>
			<path class="st4" d="M1884.5,472.9v80.9h46.5v30.7h-83.5V472.9H1884.5z"/>
		</g>
	</g>
</g>
</svg>
