<?xml version="1.0" encoding="utf-8"?>
<!-- Generator: Adobe Illustrator 24.3.0, SVG Export Plug-In . SVG Version: 6.00 Build 0)  -->
<svg version="1.1" id="Layer_1" xmlns="http://www.w3.org/2000/svg" xmlns:xlink="http://www.w3.org/1999/xlink" x="0px" y="0px"
	 width="2000px" height="658.2px" viewBox="0 0 2000 658.2" style="enable-background:new 0 0 2000 658.2;" xml:space="preserve">
<style type="text/css">
	.st0{fill:#AC884C;}
	.st1{fill:#344D3E;}
	.st2{fill:#629077;}
	.st3{fill:#231F20;}
	.st4{fill:#FFFFFF;}
</style>
<rect x="-5" y="-28.9" class="st0" width="2020" height="767.5"/>
<g>
	<g>
		<g>
			<path class="st4" d="M38.3,231.8c0,21.4,17.3,38.6,38.7,38.7l0,0c21.4-0.1,38.6-17.3,38.7-38.7l0,0
				c-0.1-21.4-17.3-38.7-38.7-38.7l0,0C55.6,193.1,38.3,210.4,38.3,231.8L38.3,231.8L38.3,231.8z"/>
		</g>
		<g>
			<path class="st4" d="M157.9,231.8c0,21.3,17.4,38.6,38.7,38.7l0,0c21.4-0.1,38.7-17.3,38.7-38.7l0,0c0-21.4-17.3-38.7-38.7-38.7
				l0,0C175.3,193.1,157.9,210.4,157.9,231.8L157.9,231.8L157.9,231.8z"/>
		</g>
		<g>
			<g>
				<g>
					<path class="st4" d="M277.6,231.8c0,21.4,17.3,38.7,38.7,38.7l0,0c21.4,0,38.7-17.3,38.7-38.7l0,0c0-21.4-17.4-38.7-38.7-38.7
						l0,0C294.9,193.1,277.6,210.4,277.6,231.8L277.6,231.8L277.6,231.8z"/>
				</g>
			</g>
		</g>
		<g>
			<g>
				<g>
					<path class="st4" d="M98.1,337.1c0.1,21.4,17.3,38.7,38.7,38.7l0,0c21.4,0,38.7-17.4,38.7-38.7l0,0c0-21.4-17.3-38.7-38.7-38.7
						l0,0C115.4,298.4,98.2,315.7,98.1,337.1L98.1,337.1L98.1,337.1z"/>
				</g>
			</g>
		</g>
		<g>
			<g>
				<path class="st4" d="M217.8,337.1c0.1,21.4,17.4,38.7,38.7,38.7l0,0c21.4,0,38.7-17.4,38.7-38.7l0,0c0-21.4-17.3-38.7-38.7-38.7
					l0,0C235.1,298.4,217.8,315.7,217.8,337.1L217.8,337.1L217.8,337.1z"/>
			</g>
		</g>
		<g>
			<path class="st4" d="M157.9,442.5c0,21.4,17.3,38.7,38.7,38.7l0,0c21.4,0,38.7-17.3,38.7-38.7l0,0c0-21.4-17.3-38.7-38.7-38.7
				l0,0C175.3,403.8,158,421.1,157.9,442.5L157.9,442.5L157.9,442.5z"/>
		</g>
		<g>
			<g>
				<path class="st4" d="M104,93.1c3.6,14,10.7,31.1,23.6,44l0,0c12.9,12.9,30,20,44,23.6l0,0c6.7,1.7,12.5,2.7,16.8,3.3l0,0
					c-0.6-4.3-1.5-10.2-3.2-16.8l0,0c-3.6-14-10.7-31.1-23.6-44l0,0c-12.9-12.9-30-19.9-44-23.6l0,0c-6.7-1.7-12.5-2.7-16.8-3.3l0,0
					C101.3,80.6,102.2,86.5,104,93.1L104,93.1z"/>
			</g>
			<g>
				<path class="st4" d="M279.3,79.6c-14,3.6-31.1,10.7-44,23.6l0,0c-12.9,12.9-19.9,30-23.6,44l0,0c-1.7,6.7-2.7,12.5-3.3,16.8l0,0
					c4.3-0.5,10.2-1.5,16.8-3.2l0,0c14-3.7,31.1-10.7,44-23.6l0,0c12.9-12.9,19.9-30,23.6-44l0,0c1.8-6.7,2.7-12.5,3.3-16.8l0,0
					C291.7,76.9,285.9,77.8,279.3,79.6L279.3,79.6z"/>
			</g>
		</g>
	</g>
	<g>
		<path class="st4" d="M609.5,354.4c0,33.4-25.5,64-95.4,64c-61.9,0-89.5-21.7-89.5-57.2c0-11.4,0.9-18.5,1.8-24.4l66.9,2.3
			c-1.2,4.4-1.8,10-1.8,15c0,10,6.5,15,18.2,15s17.3-3.8,17.3-12.3V355c0-7.6-6.2-13.8-49.6-37c-36.7-19.7-51.3-35.2-51.3-65.7v-4.1
			c0-29.9,28.5-60.1,92.4-60.1c64.6,0,86.3,25.8,86.3,57.2c0,9.7-0.3,15.6-1.5,22.6l-64-2.6c0.9-4.1,1.5-7,1.5-12.3
			c0-11.7-3.8-15.6-16.4-15.6c-11.1,0-15.6,5-15.6,11.1v1.5c0,9.7,7.6,13.8,36.4,27.6c45.5,21.7,64.3,34.9,64.3,72.5V354.4z"/>
		<path class="st4" d="M833.7,340.6c0,37-12.6,77.8-93,77.8c-82.2,0-98.3-41.7-98.3-78.6V191.9h82.7v158.4c0,10,6.5,17.3,19.1,17.3
			c10.9,0,17.3-7.9,17.3-17.6V191.9h72.2V340.6z"/>
		<path class="st4" d="M1034.1,414.9H873.9v-223h82.4v167.5h77.8V414.9z"/>
		<path class="st4" d="M1235.6,247.3h-57.5v167.5h-83V247.3h-57.5v-55.5h198.1V247.3z"/>
		<path class="st4" d="M1450.7,414.9h-83l-4.7-23.5h-45.2l-4.1,23.5H1243l58.1-223h91L1450.7,414.9z M1353.6,342.4l-13.5-76.9h-1.5
			l-12.6,76.9H1353.6z"/>
		<path class="st4" d="M1681.6,414.9h-76.9l-49.3-110h-1.8v110h-72.2v-223h81.9l44.3,93.9h1.8v-93.9h72.2V414.9z"/>
		<path class="st4" d="M1920.2,414.9h-83l-4.7-23.5h-45.2l-4.1,23.5h-70.7l58.1-223h91L1920.2,414.9z M1823.1,342.4l-13.5-76.9h-1.5
			l-12.6,76.9H1823.1z"/>
	</g>
	<g>
		<g>
			<path class="st4" d="M1342,528.6c0,33.9-24.4,55.9-62.1,55.9h-48.4V472.9h49.8C1318.1,472.9,1342,494.7,1342,528.6z
				 M1304.3,528.9c0-16.6-9.4-27.4-23.7-27.4h-12.1v54.3h13.9C1295.7,555.9,1304.3,545.3,1304.3,528.9z"/>
			<path class="st4" d="M1397.3,472.9v111.6h-36.9V472.9H1397.3z"/>
			<path class="st4" d="M1493.3,525.8h31.7v46c-12.4,8.3-33,14.3-48.9,14.3c-35,0-60.5-24.2-60.5-57.3c0-33,26.4-57,62.9-57
				c17.4,0,36.3,6.7,48.3,17.2l-20.9,25.3c-7.5-7.2-18.3-11.8-27.6-11.8c-14.3,0-24.8,11.1-24.8,26.3c0,15.4,10.7,26.6,25.2,26.6
				c3.8,0,9.2-1.4,14.7-3.7V525.8z"/>
			<path class="st4" d="M1583.6,472.9v111.6h-36.9V472.9H1583.6z"/>
			<path class="st4" d="M1700.8,472.9V502H1669v82.5H1632V502h-31.7v-29.1H1700.8z"/>
			<path class="st4" d="M1780.8,568.8h-41.9l-5.7,15.8h-37.9l47.1-111.6h37.9l45.4,111.6h-39.3L1780.8,568.8z M1771.7,542.3
				l-11.5-32.6l-11.8,32.6H1771.7z"/>
			<path class="st4" d="M1877,472.9v80.9h46.5v30.7H1840V472.9H1877z"/>
		</g>
	</g>
</g>
</svg>
